<svg xmlns="http://www.w3.org/2000/svg" width="50.854" height="51.093" viewBox="0 0 50.854 51.093">
  <g id="noun_Cake_1976727" transform="translate(-1.2 -1)">
    <g id="Group_2956" data-name="Group 2956" transform="translate(1.2 1)">
      <path id="Path_22547" data-name="Path 22547" d="M49.05,42.323a6.356,6.356,0,0,0-6.307-.479,7.633,7.633,0,0,1-6.466,0,6.634,6.634,0,0,0-5.509,0,7.634,7.634,0,0,1-6.467,0,6.634,6.634,0,0,0-5.509,0,7.634,7.634,0,0,1-6.467,0,6.523,6.523,0,0,0-6.067.319.172.172,0,0,0-.16.16V53.58H49.05V42.323Z" transform="translate(-2.188 -9.113)"/>
      <path id="Path_22548" data-name="Path 22548" d="M13.146,38.3a6.136,6.136,0,0,0,5.03,0,7.959,7.959,0,0,1,6.866,0,6.136,6.136,0,0,0,5.03,0,8.136,8.136,0,0,1,6.946,0,6.136,6.136,0,0,0,5.029,0,7.862,7.862,0,0,1,6.946.08V37.346A6.576,6.576,0,0,0,42.444,30.8h-29.7A6.576,6.576,0,0,0,6.2,37.346v1.038A8.13,8.13,0,0,1,13.146,38.3Z" transform="translate(-2.208 -7.01)"/>
      <path id="Path_22549" data-name="Path 22549" d="M51.176,58.7H2a.859.859,0,0,0-.8.8,4.259,4.259,0,0,0,4.231,4.231H47.823A4.259,4.259,0,0,0,52.054,59.5.938.938,0,0,0,51.176,58.7Z" transform="translate(-1.2 -12.636)"/>
      <path id="Path_22550" data-name="Path 22550" d="M32.274,9.143a2.862,2.862,0,0,0,2.874-2.874c0-1.277-1.677-3.992-2.235-4.87a.711.711,0,0,0-1.277,0c-.559.8-2.235,3.593-2.235,4.87A2.914,2.914,0,0,0,32.274,9.143Z" transform="translate(-6.887 -1)"/>
      <path id="Path_22551" data-name="Path 22551" d="M20.374,13.443a2.862,2.862,0,0,0,2.874-2.874c0-1.277-1.677-4.072-2.235-4.87a.814.814,0,0,0-.639-.4.711.711,0,0,0-.639.4c-.559.8-2.235,3.593-2.235,4.87A2.862,2.862,0,0,0,20.374,13.443Z" transform="translate(-4.487 -1.867)"/>
      <path id="Path_22552" data-name="Path 22552" d="M35.208,16.754a2.954,2.954,0,0,0-5.908,0v9.021h5.908Z" transform="translate(-6.867 -3.581)"/>
      <path id="Path_22553" data-name="Path 22553" d="M44.174,13.443a2.862,2.862,0,0,0,2.874-2.874c0-1.277-1.676-4.072-2.235-4.87a.814.814,0,0,0-.639-.4.711.711,0,0,0-.639.4c-.559.8-2.235,3.593-2.235,4.87A2.862,2.862,0,0,0,44.174,13.443Z" transform="translate(-9.287 -1.867)"/>
      <path id="Path_22554" data-name="Path 22554" d="M47.108,21.054a2.954,2.954,0,1,0-5.908,0v5.588h5.908Z" transform="translate(-9.267 -4.448)"/>
      <path id="Path_22555" data-name="Path 22555" d="M23.308,21.054A3,3,0,0,0,20.354,18.1,2.947,2.947,0,0,0,17.4,21.054v5.588h5.908V21.054Z" transform="translate(-4.467 -4.448)"/>
    </g>
  </g>
</svg>
