<svg xmlns="http://www.w3.org/2000/svg" width="17.23" height="18.687" viewBox="0 0 17.23 18.687">
  <g id="noun_message_1636844" transform="translate(-11.95 -10)">
    <g id="Group_3295" data-name="Group 3295" transform="translate(11.95 10)">
      <path id="Path_22774" data-name="Path 22774" d="M20.569,10a8.612,8.612,0,0,0-5.217,15.469l-1.428,2.669a.374.374,0,0,0,.329.549.291.291,0,0,0,.082-.011L20.7,27.23A8.615,8.615,0,0,0,20.569,10ZM16.338,20.136a1.523,1.523,0,1,1,1.521-1.525A1.526,1.526,0,0,1,16.338,20.136Zm4.227,0a1.523,1.523,0,1,1,1.521-1.525A1.523,1.523,0,0,1,20.565,20.136Zm4.227,0a1.523,1.523,0,1,1,1.525-1.525A1.526,1.526,0,0,1,24.792,20.136Z" transform="translate(-11.95 -10)" fill="#fff"/>
    </g>
  </g>
</svg>
