<svg id="Group_3567" data-name="Group 3567" xmlns="http://www.w3.org/2000/svg" width="69.077" height="13.371" viewBox="0 0 69.077 13.371">
  <path id="Path_22720" data-name="Path 22720" d="M-1375.6-1378.564a2.721,2.721,0,0,1,2.627-1.276,3.188,3.188,0,0,1,3.12,2.609,7.863,7.863,0,0,1,.153,2.822,5.15,5.15,0,0,1-.4,1.589,2.993,2.993,0,0,1-2.541,1.874,3.943,3.943,0,0,1-1.4-.068,2.515,2.515,0,0,1-1.545-1.053c-.041-.06-.054-.152-.18-.171,0,.3,0,.6,0,.891,0,.263,0,.265-.26.266q-.958,0-1.916,0c-.253,0-.256,0-.257-.271,0-.529,0-1.058,0-1.586v-10.686c0-.425-.019-.36.365-.392.567-.047,1.132-.1,1.7-.154.129-.011.259-.015.388-.025.1-.008.145.04.141.14,0,.07,0,.14,0,.21v5.283Z" transform="translate(1410.86 1384.25)" fill="#fff"/>
  <path id="Path_22721" data-name="Path 22721" d="M-422.187-1371.07c-.875,0-1.713-.005-2.55,0-.164,0-.225-.09-.3-.2q-.994-1.565-1.991-3.129c-.139-.219-.278-.438-.419-.655a.2.2,0,0,0-.151-.126v3.742c0,.07,0,.14,0,.209.005.115-.047.158-.161.158q-1.137,0-2.275,0c-.113,0-.167-.041-.16-.156,0-.07,0-.14,0-.209q0-6.089,0-12.178c0-.417-.042-.359.36-.392.566-.046,1.132-.1,1.7-.153.129-.011.259-.015.388-.026.1-.009.151.026.148.132,0,.08,0,.16,0,.239q0,3.92,0,7.839v.313c.125-.009.142-.113.184-.179.744-1.181,1.492-2.36,2.22-3.55a.539.539,0,0,1,.547-.3c.678.019,1.357.005,2.035.007a.8.8,0,0,1,.309.023.712.712,0,0,1-.148.283c-.781,1.24-1.559,2.482-2.351,3.716a.393.393,0,0,0,0,.5c.82,1.25,1.628,2.509,2.439,3.766A.969.969,0,0,1-422.187-1371.07Z" transform="translate(491.264 1384.239)" fill="#fff"/>
  <path id="Path_22722" data-name="Path 22722" d="M-2237.757-1238.058c0-.315,0-.63,0-.946,0-.242,0-.246.248-.246q.988,0,1.975,0c.24,0,.243,0,.243.251q0,1.84,0,3.681v4.309c0,.07,0,.14,0,.209.006.113-.042.16-.157.159q-1.077,0-2.155,0c-.116,0-.158-.048-.157-.161,0-.328,0-.656,0-.977-.062-.032-.086.006-.1.038a2.636,2.636,0,0,1-2.625,1.263,3.724,3.724,0,0,1-1.026-.189,2.968,2.968,0,0,1-1.806-1.72,5.144,5.144,0,0,1-.4-1.589,8.025,8.025,0,0,1,.155-2.822,4.083,4.083,0,0,1,.551-1.253,2.977,2.977,0,0,1,2.179-1.323,3.728,3.728,0,0,1,1.252.015,2.468,2.468,0,0,1,1.671,1.158c.031.051.063.1.1.151Z" transform="translate(2250.499 1243.811)" fill="#fff"/>
  <path id="Path_22723" data-name="Path 22723" d="M-1055.144-1235.238a6.285,6.285,0,0,1-.229,1.813,3.46,3.46,0,0,1-2.655,2.562,5.735,5.735,0,0,1-2.9-.034,3.393,3.393,0,0,1-2.5-2.42,6.384,6.384,0,0,1-.047-3.6,3.437,3.437,0,0,1,2.733-2.589,5.711,5.711,0,0,1,2.754.026,3.568,3.568,0,0,1,2.722,2.973A5.7,5.7,0,0,1-1055.144-1235.238Z" transform="translate(1105.801 1244.043)" fill="#fff"/>
  <path id="Path_22724" data-name="Path 22724" d="M-740.364-1235.1a6.312,6.312,0,0,1-.245,1.84,3.466,3.466,0,0,1-2.651,2.5,5.751,5.751,0,0,1-2.873-.034,3.391,3.391,0,0,1-2.511-2.415,6.408,6.408,0,0,1-.043-3.631,3.426,3.426,0,0,1,2.7-2.557,5.811,5.811,0,0,1,2.64-.012,3.559,3.559,0,0,1,2.836,2.866A6.72,6.72,0,0,1-740.364-1235.1Z" transform="translate(800.451 1243.942)" fill="#fff"/>
  <path id="Path_22725" data-name="Path 22725" d="M-1678.218-1232.56c.15.534.289,1.043.437,1.549.047.161-.014.233-.155.295a5.965,5.965,0,0,1-1.4.405,9.975,9.975,0,0,1-2.951.07,4.515,4.515,0,0,1-1.208-.328,3.151,3.151,0,0,1-1.87-2.161,7.434,7.434,0,0,1-.088-3.555,3.349,3.349,0,0,1,2.915-2.745,5.882,5.882,0,0,1,2.407.042,3.1,3.1,0,0,1,2.479,2.538,5.2,5.2,0,0,1,.127,1.157c0,.409,0,.818,0,1.227,0,.326.027.3-.313.3h-3.413c-.509,0-1.018,0-1.527,0-.232,0-.241.008-.2.238a1.487,1.487,0,0,0,1.391,1.437,6.626,6.626,0,0,0,2.975-.335C-1678.5-1232.466-1678.374-1232.508-1678.218-1232.56Z" transform="translate(1709.083 1243.535)" fill="#fff"/>
  <path id="Path_22726" data-name="Path 22726" d="M-2466.492-1376.041q0-1.482,0-2.963c0-.277,0-.279-.278-.28-.419,0-.838,0-1.258,0-.238,0-.243-.006-.244-.225q0-.838,0-1.676c0-.214.006-.219.215-.22.449,0,.9,0,1.347,0,.212,0,.216-.006.218-.215,0-.459,0-.918,0-1.377a3.98,3.98,0,0,1,.119-.977,2.34,2.34,0,0,1,1.6-1.746,5.426,5.426,0,0,1,2.188-.219c.239.018.476.049.715.07.12.011.169.064.168.19q-.008.808,0,1.616c0,.151-.065.186-.2.182-.249-.006-.5,0-.748,0a2.429,2.429,0,0,0-.507.037.8.8,0,0,0-.719.794c-.056.5-.012,1-.025,1.5,0,.15.09.151.2.151q.793,0,1.587,0c.07,0,.14,0,.209,0,.119-.008.161.047.15.161-.025.268-.046.536-.069.8-.025.288-.046.577-.076.864s-.034.293-.318.294c-.409,0-.818,0-1.228,0-.514,0-.451-.065-.452.438q0,2.843,0,5.687c0,.415.029.36-.375.361q-.988,0-1.976,0c-.241,0-.244,0-.244-.25Q-2466.494-1374.545-2466.492-1376.041Z" transform="translate(2468.274 1385.967)" fill="#fff"/>
  <path id="Path_22727" data-name="Path 22727" d="M-1921.427-1236.888a4.42,4.42,0,0,0-1.374-.377,2.725,2.725,0,0,0-.979.07,1.708,1.708,0,0,0-1.354,1.627,6.291,6.291,0,0,0,.029,1.671,1.808,1.808,0,0,0,1.556,1.521,3.694,3.694,0,0,0,1.846-.251.91.91,0,0,1,.3-.1c.1.306.206.617.309.927.072.217.144.435.213.654s.069.231-.149.344a3.822,3.822,0,0,1-1.257.37,6.8,6.8,0,0,1-2.645-.114,3.361,3.361,0,0,1-2.641-2.674,7.315,7.315,0,0,1-.017-3.206,3.352,3.352,0,0,1,2.689-2.7,6.783,6.783,0,0,1,3.26.032,3.069,3.069,0,0,1,.721.284c.078.043.121.087.087.188-.187.557-.366,1.117-.55,1.675C-1921.388-1236.923-1921.407-1236.911-1921.427-1236.888Z" transform="translate(1943.955 1243.698)" fill="#fff"/>
  <path id="Path_22728" data-name="Path 22728" d="M-1288.262-1169.09a4.124,4.124,0,0,1-.127,1.222,1.484,1.484,0,0,1-1.581,1.183,1.566,1.566,0,0,1-1.594-1.229,1.754,1.754,0,0,1-.064-.443c0-.489,0-.977,0-1.466a2.125,2.125,0,0,1,.1-.587,1.674,1.674,0,0,1,2.367-1,1.422,1.422,0,0,1,.7.857A3.954,3.954,0,0,1-1288.262-1169.09Z" transform="translate(1326.889 1178.007)" fill="#1877f2"/>
  <path id="Path_22729" data-name="Path 22729" d="M-2154.278-1168.88a5.989,5.989,0,0,1-.047,1.015,1.608,1.608,0,0,1-2.17,1.266,1.332,1.332,0,0,1-.821-.74,2.222,2.222,0,0,1-.215-.743,5.863,5.863,0,0,1,.081-2.08,2.27,2.27,0,0,1,.091-.284,1.426,1.426,0,0,1,1.588-.952,1.5,1.5,0,0,1,1.441,1.355A7.39,7.39,0,0,1-2154.278-1168.88Z" transform="translate(2166.896 1177.834)" fill="#1877f2"/>
  <path id="Path_22730" data-name="Path 22730" d="M-974.771-1168.617a5.094,5.094,0,0,1-.068,1.1,1.653,1.653,0,0,1-2.157,1.283,1.348,1.348,0,0,1-1-.948,4.9,4.9,0,0,1-.02-2.8,1.5,1.5,0,0,1,1.638-1.07,1.561,1.561,0,0,1,1.533,1.3A5.193,5.193,0,0,1-974.771-1168.617Z" transform="translate(1022.858 1177.494)" fill="#1877f2"/>
  <path id="Path_22731" data-name="Path 22731" d="M-661.758-1169.379a4.5,4.5,0,0,1,.038-1.072,1.664,1.664,0,0,1,2.422-1.188,1.613,1.613,0,0,1,.87,1.315,7.144,7.144,0,0,1,0,1.878,1.611,1.611,0,0,1-1.243,1.474,1.568,1.568,0,0,1-2.009-1.162,1.777,1.777,0,0,1-.078-.379C-661.766-1168.8-661.758-1169.09-661.758-1169.379Z" transform="translate(715.905 1178.248)" fill="#1877f2"/>
  <path id="Path_22732" data-name="Path 22732" d="M-1597.882-1178.546a2.455,2.455,0,0,1,.229-1.126,1.324,1.324,0,0,1,.891-.736,2.012,2.012,0,0,1,.83-.043,1.3,1.3,0,0,1,1.1.928,2.9,2.9,0,0,1,.124.674c.027.3.021.3-.274.3h-2.9Z" transform="translate(1623.965 1186.633)" fill="#1877f2"/>
</svg>
