<svg xmlns="http://www.w3.org/2000/svg" width="13.204" height="18.744" viewBox="0 0 13.204 18.744">
  <g id="Group_3356" data-name="Group 3356" transform="translate(-269.796 -25.5)">
    <g id="noun_flash_2291931" transform="translate(270.037 26)">
      <g id="Group_3355" data-name="Group 3355" transform="translate(0.265)">
        <path id="Path_22781" data-name="Path 22781" d="M.747,9.848l1.994.125L1,16.828a.678.678,0,0,0,1.122.686l7.791-9.1a.66.66,0,0,0-.5-1.06H6.98L10.283,1a.666.666,0,0,0-.561-1H3.739a.619.619,0,0,0-.623.436l-2.8,8.6C.186,9.349.311,9.848.747,9.848Z" transform="translate(-0.265)" fill="#bbb" stroke="#c2c2c2" stroke-width="1" fill-rule="evenodd"/>
      </g>
    </g>
    <circle id="Ellipse_234" data-name="Ellipse 234" cx="4" cy="4" r="4" transform="translate(275 35)" fill="#fffb81"/>
  </g>
</svg>
