<svg xmlns="http://www.w3.org/2000/svg" width="80.748" height="22.906" viewBox="0 0 80.748 22.906">
  <g id="Group_3568" data-name="Group 3568" transform="translate(-200.494 -260.496)">
    <path id="Path_22805" data-name="Path 22805" d="M358.436,274.867c-.084.122-.152.209-.207.3a1.828,1.828,0,0,1-1.912,1,2.139,2.139,0,0,1-1.746-1.326c-.074-.158-.054-.427-.244-.448s-.24.239-.344.379a3.164,3.164,0,0,1-2.323,1.4,2.368,2.368,0,0,1-2.294-1.094c-.182-.269-.273-.364-.506-.02a2.168,2.168,0,0,1-3.8,0,5.776,5.776,0,0,1-.734-3.744,14.82,14.82,0,0,1,.345-2.4c.1-.448.036-.515-.424-.519-1.077-.008-1.073-.007-1.466.968a20.233,20.233,0,0,1-3.2,5.415,1.341,1.341,0,0,0-.325.911,22.5,22.5,0,0,1-.162,4.378,4.616,4.616,0,0,1-1.2,2.613,3.029,3.029,0,0,1-3.2.752,2.343,2.343,0,0,1-1.589-3.048,4.827,4.827,0,0,1,1.143-1.828c.868-.946,1.839-1.787,2.774-2.664.132-.124.287-.235.3-.436s.09-.451-.081-.548c-.2-.116-.274.168-.39.282a2.946,2.946,0,0,1-2.891.905,2.406,2.406,0,0,1-1.392-1.011c-.313-.435-.313-.432-.626.025a2.135,2.135,0,0,1-1.578,1.054,2.1,2.1,0,0,1-2.243-1.442c-.043-.113-.033-.291-.166-.317-.167-.033-.205.159-.28.265a3.246,3.246,0,0,1-2.232,1.484,2.607,2.607,0,0,1-2.871-1.806c-.08-.188-.085-.521-.263-.529-.227-.01-.245.325-.345.512a5.024,5.024,0,0,1-.877,1.217,1.965,1.965,0,0,1-3.1-.284,5.06,5.06,0,0,1-.782-2.142c-.024-.148-.051-.3-.082-.479-.193.091-.217.253-.28.377a6.705,6.705,0,0,1-1.449,2.031,4.683,4.683,0,0,1-5.081.791c-.335-.121-.693-.283-.711-.731a1.672,1.672,0,0,1,.777-1.224.6.6,0,0,1,.588.112,5.573,5.573,0,0,0,.85.531,1.019,1.019,0,0,0,1.51-.742,1.973,1.973,0,0,0-.223-1.453,7.193,7.193,0,0,0-1.733-1.851c-.225-.2-.316.039-.4.183q-.833,1.377-1.654,2.762a8.983,8.983,0,0,1-1.551,2.014,2.929,2.929,0,0,1-.971.64,1.26,1.26,0,0,1-1.738-.758,5.2,5.2,0,0,1-.329-1.8c-.056-1.757.064-3.51.122-5.264,0-.146.091-.345-.083-.415s-.26.127-.354.237a9.124,9.124,0,0,0-1.342,2.208,20.409,20.409,0,0,0-1.522,5.114c-.056.34-.047.708-.536.766-.755.089-1.205-.058-1.416-.525a2.761,2.761,0,0,1-.207-1.144c-.009-2.648-.021-5.3.061-7.942.015-.494.169-.619.654-.553.1.013.193.032.288.054.893.208.994.334.994,1.236,0,1.21,0,2.42,0,3.688.2-.123.213-.3.264-.436a17.5,17.5,0,0,1,1.138-2.692,4.469,4.469,0,0,1,1.208-1.478,2.079,2.079,0,0,1,2.858.606,1.341,1.341,0,0,1,.138.77c-.065,1.685-.127,3.369-.1,5.056a3.663,3.663,0,0,0,.087.913c.128.466.4.547.748.2a4.471,4.471,0,0,0,.543-.687c.706-1.088,1.324-2.228,1.948-3.364a.571.571,0,0,0-.058-.689,2.275,2.275,0,0,1,1.83-3.374c.934-.034,1.354.5,1.078,1.386a4.475,4.475,0,0,1-.762,1.433c-.205.262-.163.429.094.616.519.376,1.028.766,1.533,1.162a3.216,3.216,0,0,1,1.5,2.655c0,.08-.012.181.087.216s.155-.044.209-.1a4.44,4.44,0,0,0,1.29-2.746c.068-1.419.056-2.841.071-4.262.006-.557-.038-.6-.578-.633-.487-.029-.974-.052-1.462-.061-.385-.007-.513-.21-.492-.564.048-.8.287-1.039,1.072-1.027.376.006.753.008,1.128.034.3.021.431-.1.44-.4q.027-1,.087-2c.043-.726.249-.876.964-.735,1.352.267,1.395.317,1.356,1.681-.011.376-.04.751-.063,1.127-.02.317.131.455.443.467q.961.037,1.921.1c.589.037.723.142.723.534,0,.562-.256.859-.774.871-.6.013-1.2.025-1.8.012-.4-.009-.584.146-.6.557-.069,2.186-.151,4.373-.1,6.561a3.879,3.879,0,0,0,.277,1.387c.253.617.681.732,1.17.277a4.059,4.059,0,0,0,1.309-2.85,10.79,10.79,0,0,1,.509-3.039,4.7,4.7,0,0,1,1.231-1.966,2.364,2.364,0,0,1,3.383.055c.21.2.351.344.439-.076a.355.355,0,0,1,.183-.215,1.835,1.835,0,0,1,1.486.176c.36.145.4.471.376.808-.1,1.712-.09,3.426-.083,5.14a6.371,6.371,0,0,0,.2,1.738c.106.371.254.732.7.791.465.061.712-.254.914-.6a2.453,2.453,0,0,0,.321-1.518,9.579,9.579,0,0,1,.525-4.525,4.9,4.9,0,0,1,1.053-1.692,2.379,2.379,0,0,1,3.443-.045c.184.175.342.4.443-.052a.253.253,0,0,1,.094-.135c.5-.36.988-.1,1.475.034a.65.65,0,0,1,.47.739c-.018,1.407-.023,2.815-.03,4.222,0,.665,0,1.33,0,1.991.226.032.262-.116.324-.211a15.685,15.685,0,0,0,1.925-4.067.89.89,0,0,0-.163-.918,1.614,1.614,0,0,1,.929-2.538.976.976,0,0,1,1.255,1.047c0,.514.009.53.512.445.481-.081.957-.193,1.44-.259,1.2-.163,1.685.362,1.446,1.545a24.9,24.9,0,0,0-.5,2.711,8.214,8.214,0,0,0,.1,2.538,2.46,2.46,0,0,0,.351.889.787.787,0,0,0,1.361.047,1.9,1.9,0,0,0,.406-1.484,10.312,10.312,0,0,1,.178-3.984,5.264,5.264,0,0,1,1.377-2.541,2.361,2.361,0,0,1,3.408-.014c.164.157.324.437.44-.049a.471.471,0,0,1,.534-.317,3.754,3.754,0,0,1,.7.1c.694.169.823.335.811,1.038-.03,1.685-.123,3.37-.083,5.056a7.182,7.182,0,0,0,.225,1.862c.1.331.238.638.638.689a.839.839,0,0,0,.826-.465,4.444,4.444,0,0,0,.809-2.466c.011-1.644.014-3.289.023-4.933a5.439,5.439,0,0,1,.031-.584.444.444,0,0,1,.544-.437,5.44,5.44,0,0,1,1.062.224.62.62,0,0,1,.427.687c0,.822,0,1.644,0,2.466,0,.15,0,.3,0,.524a.774.774,0,0,0,.245-.447,25.892,25.892,0,0,1,.991-2.707c.337-.7.577-.852,1.172-.741.925.172,1.414.6,1.454,1.309.066,1.182.11,2.365.168,3.548a1.881,1.881,0,0,0,.129.631c.028-.107.064-.213.084-.322a22.72,22.72,0,0,1,1.325-4.4c.309-.766.655-.93,1.437-.681a4.468,4.468,0,0,1,.658.264,1.178,1.178,0,0,1,.76,1.375,40.029,40.029,0,0,0,.035,5.429,3.061,3.061,0,0,0,.356,1.194.656.656,0,0,0,1.249-.02,4.144,4.144,0,0,0,.327-.9c.056-.216.107-.433.175-.645.057-.178.149-.356.366-.344a.365.365,0,0,1,.328.419,3.77,3.77,0,0,1-1.091,2.923,1.984,1.984,0,0,1-2.788-.45,3.847,3.847,0,0,1-.749-1.794,21.38,21.38,0,0,1-.212-3.666c0-.437,0-.874,0-1.344a.734.734,0,0,0-.286.444,15.984,15.984,0,0,0-1.284,5.718c-.016.475-.19.651-.655.7a1.354,1.354,0,0,1-1.531-1.067,12.469,12.469,0,0,1-.379-2.433c-.08-.957-.121-1.918-.182-2.877-.008-.119.046-.288-.1-.335-.182-.06-.225.134-.281.245a12.194,12.194,0,0,0-1.29,5.106c-.018.5-.04,1-.061,1.5a.592.592,0,0,1-.673.626,4.145,4.145,0,0,1-1.04-.06.737.737,0,0,1-.668-.776A.563.563,0,0,0,358.436,274.867Z" transform="translate(-90.609 -0.205)" fill="#000"/>
    <path id="Path_22806" data-name="Path 22806" d="M206.835,268.567c-.03,1.341.072,3.375-.077,5.406a5.345,5.345,0,0,1-.916,2.781,2.949,2.949,0,0,1-1.247,1.017c-.151.066-.323.135-.469-.009a.39.39,0,0,1-.045-.434,14.616,14.616,0,0,0,.5-4.8c.015-3.258-.022-6.517.059-9.775.006-.251.121-.622-.148-.723s-.438.245-.588.443a6.775,6.775,0,0,0-1.4,5.216,3.465,3.465,0,0,0,.516,1.313c.113.185.288.4.109.611s-.444.085-.659,0a3.223,3.223,0,0,1-1.945-3.3,7.455,7.455,0,0,1,3.735-5.553,2.04,2.04,0,0,1,2.245.162.824.824,0,0,1,.334.806C206.833,263.781,206.835,265.828,206.835,268.567Z" transform="translate(0)" fill="#000"/>
    <path id="Path_22807" data-name="Path 22807" d="M600.46,344.113a9.606,9.606,0,0,1-.4,2.833,3.156,3.156,0,0,1-.7,1.222,1.014,1.014,0,0,1-1.751-.244,3.924,3.924,0,0,1-.414-1.479,9.714,9.714,0,0,1,.277-3.725,3.122,3.122,0,0,1,.423-.9,1.2,1.2,0,0,1,2.193.163A5.547,5.547,0,0,1,600.46,344.113Z" transform="translate(-363.456 -73.928)" fill="#fff"/>
    <path id="Path_22808" data-name="Path 22808" d="M915.831,344.456a7.774,7.774,0,0,1-.61,3.125,2.362,2.362,0,0,1-.574.811.976.976,0,0,1-1.6-.218,2.648,2.648,0,0,1-.377-1.01,9.985,9.985,0,0,1,.161-4.3,2.839,2.839,0,0,1,.387-.873,1.279,1.279,0,0,1,1.294-.662,1.222,1.222,0,0,1,.991.906A6.449,6.449,0,0,1,915.831,344.456Z" transform="translate(-652.446 -74.058)" fill="#fff"/>
    <path id="Path_22809" data-name="Path 22809" d="M711.738,345.516a7.7,7.7,0,0,1,.577-3.182,2.1,2.1,0,0,1,.65-.856,1.121,1.121,0,0,1,1.729.417,2.516,2.516,0,0,1,.251.794,9.579,9.579,0,0,1-.348,4.456,2.675,2.675,0,0,1-.717,1.161.973.973,0,0,1-1.617-.24,3.835,3.835,0,0,1-.46-1.551C711.757,346.144,711.753,345.766,711.738,345.516Z" transform="translate(-468.469 -73.982)" fill="#fff"/>
    <path id="Path_22810" data-name="Path 22810" d="M722.612,459.97a12.081,12.081,0,0,1-.36,2.975,1.767,1.767,0,0,1-.816,1.21,1.122,1.122,0,0,1-1.191.02,1.14,1.14,0,0,1-.511-1.117,3.372,3.372,0,0,1,.535-1.522,12.445,12.445,0,0,1,2.026-2.431c.065-.064.132-.173.243-.112s.071.173.073.267C722.615,459.5,722.612,459.733,722.612,459.97Z" transform="translate(-475.793 -181.872)" fill="#fff"/>
  </g>
</svg>
