<svg xmlns="http://www.w3.org/2000/svg" width="216.787" height="4.096" viewBox="0 0 216.787 4.096">
  <g id="Group_1631" data-name="Group 1631" transform="translate(0)">
    <path id="Path_22224" data-name="Path 22224" d="M46.518,440h12.85l-5.948,4.1H41.074Z" transform="translate(-41.074 -440)" fill="#d53636"/>
    <path id="Path_22227" data-name="Path 22227" d="M46.518,440h12.85l-5.948,4.1H41.074Z" transform="translate(8.55 -440)" fill="#d53636"/>
    <path id="Path_22229" data-name="Path 22229" d="M46.518,440h12.85l-5.948,4.1H41.074Z" transform="translate(58.173 -440)" fill="#d53636"/>
    <path id="Path_22231" data-name="Path 22231" d="M46.518,440h12.85l-5.948,4.1H41.074Z" transform="translate(107.797 -440)" fill="#d53636"/>
    <path id="Path_22225" data-name="Path 22225" d="M46.518,440h12.85l-5.948,4.1H41.074Z" transform="translate(-16.706 -440)" fill="#d53636"/>
    <path id="Path_22226" data-name="Path 22226" d="M46.518,440h12.85l-5.948,4.1H41.074Z" transform="translate(33.361 -440)" fill="#d53636"/>
    <path id="Path_22228" data-name="Path 22228" d="M46.518,440h12.85l-5.948,4.1H41.074Z" transform="translate(82.985 -440)" fill="#d53636"/>
    <path id="Path_22230" data-name="Path 22230" d="M46.518,440h12.85l-5.948,4.1H41.074Z" transform="translate(133.052 -440)" fill="#d53636"/>
    <path id="Path_22232" data-name="Path 22232" d="M46.518,440h12.85l-5.948,4.1H41.074Z" transform="translate(157.42 -440)" fill="#d53636"/>
  </g>
</svg>
