<svg xmlns="http://www.w3.org/2000/svg" width="33.488" height="12.561" viewBox="0 0 33.488 12.561">
  <g id="Group_555" data-name="Group 555" transform="translate(-173.266 -351.222)">
    <path id="Path_2937" data-name="Path 2937" d="M173.266,351.562H177.6v1.768a4.865,4.865,0,0,1,3.764-2.109c2.131,0,3.31.907,3.877,2.177a4.791,4.791,0,0,1,4.1-2.177c3.469,0,4.558,1.95,4.558,5.192v7.029h-4.716v-6.054c0-1.746-.34-2.449-1.587-2.449-1.383,0-1.655,1.2-1.655,2.63v5.872h-4.716v-6.054c0-1.746-.34-2.449-1.587-2.449-1.383,0-1.655,1.2-1.655,2.63v5.872h-4.716Z" fill="#5b5b5b"/>
    <path id="Path_2938" data-name="Path 2938" d="M267.51,356.1a1.784,1.784,0,0,0-.5-1.224,1.589,1.589,0,0,0-1.224-.476c-1.768,0-2.064,1.837-2.064,3.242,0,1.791.68,2.97,2.064,2.97a1.786,1.786,0,0,0,1.836-1.768h4.762c-.408,3.605-3.311,4.943-6.6,4.943-3.832,0-6.779-2.154-6.779-6.167,0-4.059,2.857-6.394,6.779-6.394,3.174,0,6.167,1.36,6.507,4.875Z" transform="translate(-65.631)" fill="#5b5b5b"/>
  </g>
</svg>
