<svg xmlns="http://www.w3.org/2000/svg" width="76.854" height="29.43" viewBox="0 0 76.854 29.43">
  <g id="High_Res_MC_logo_black_black" data-name="High Res MC logo black black" transform="translate(0.5 0.5)">
    <g id="Group_555" data-name="Group 555">
      <path id="Path_2937" data-name="Path 2937" d="M173.266,351.992h9.8v4a11.012,11.012,0,0,1,8.519-4.772c4.824,0,7.492,2.053,8.776,4.926a10.843,10.843,0,0,1,9.288-4.926c7.852,0,10.316,4.414,10.316,11.752v15.909H209.292v-13.7c0-3.952-.77-5.543-3.592-5.543-3.13,0-3.746,2.72-3.746,5.953v13.292H191.279v-13.7c0-3.952-.77-5.543-3.592-5.543-3.13,0-3.746,2.72-3.746,5.953v13.292H173.266Z" transform="translate(-173.266 -351.222)" fill="#211e1f" stroke="#211e1f" stroke-width="1"/>
      <path id="Path_2938" data-name="Path 2938" d="M278.252,362.255a4.037,4.037,0,0,0-1.129-2.771,3.6,3.6,0,0,0-2.771-1.078c-4,0-4.67,4.157-4.67,7.339,0,4.054,1.54,6.723,4.67,6.723,2.771,0,3.849-1.9,4.157-4h10.777c-.924,8.16-7.493,11.187-14.934,11.187-8.673,0-15.344-4.875-15.344-13.958,0-9.186,6.466-14.472,15.344-14.472,7.185,0,13.959,3.079,14.729,11.033Z" transform="translate(-213.491 -351.222)" fill="#211e1f" stroke="#211e1f" stroke-width="1"/>
    </g>
  </g>
</svg>
