<svg xmlns="http://www.w3.org/2000/svg" width="100.75" height="100.75" viewBox="0 0 100.75 100.75">
  <g id="noun_Social_Media_2731512" data-name="noun_Social Media_2731512" transform="translate(-2 -2)">
    <g id="Group_3895" data-name="Group 3895" transform="translate(2 2)">
      <rect id="Rectangle_2343" data-name="Rectangle 2343" width="4" height="4" transform="translate(48 90.75)" fill="#212121"/>
      <path id="Path_22866" data-name="Path 22866" d="M8.717,42.3H23.325l9.652,6.435a1.679,1.679,0,0,0,2.606-1.4V42.3H42.3a6.717,6.717,0,0,0,6.717-6.717V8.717A6.717,6.717,0,0,0,42.3,2H8.717A6.717,6.717,0,0,0,2,8.717V35.583A6.717,6.717,0,0,0,8.717,42.3ZM5.358,8.717A3.358,3.358,0,0,1,8.717,5.358H42.3a3.358,3.358,0,0,1,3.358,3.358V35.583A3.358,3.358,0,0,1,42.3,38.942H33.9a1.679,1.679,0,0,0-1.679,1.679V44.2l-7.464-4.977a1.689,1.689,0,0,0-.932-.282H8.717a3.358,3.358,0,0,1-3.358-3.358Z" transform="translate(-2 -2)" fill="#212121"/>
      <path id="Path_22867" data-name="Path 22867" d="M9.679,32.867H30.837a4.03,4.03,0,0,0,4.03-4.03V20.105a4.03,4.03,0,0,0-4.03-4.03H28.15V12.717A6.717,6.717,0,0,0,21.433,6a3.358,3.358,0,0,0-3.358,3.358V13.7L15.7,16.075H9.679A1.679,1.679,0,0,0,8,17.754V31.188A1.679,1.679,0,0,0,9.679,32.867ZM20.941,15.583a1.679,1.679,0,0,0,.492-1.187V9.358a3.358,3.358,0,0,1,3.358,3.358v3.358H23.113v3.358h7.724a.672.672,0,0,1,.672.672v8.732a.672.672,0,0,1-.672.672H18.075V18.449Zm-9.583,3.85h3.358V29.508H11.358Z" transform="translate(2.075 0.717)" fill="#212121"/>
      <path id="Path_22868" data-name="Path 22868" d="M96.033,12.717H79.074A8.411,8.411,0,0,0,70.846,6H52.375V9.358H70.846a5.038,5.038,0,0,1,4.729,3.358H65.808a6.7,6.7,0,0,0-5.783,3.358h-7.65v3.358h6.717V42.942a6.717,6.717,0,0,0,6.717,6.717V54.7a1.679,1.679,0,0,0,2.611,1.4l7.464-4.977v12.96l-3.011-3.011A7.616,7.616,0,0,0,62.1,71.835l8.258,8.258a16.368,16.368,0,0,0-1.615,3.148H54.054V86.6H67.844a16.394,16.394,0,0,0,1.62,10.075H33.9a5.038,5.038,0,0,1-5.038-5.037H42.3a6.717,6.717,0,0,0,6.717-6.717V71.488A6.717,6.717,0,0,0,42.3,64.771H35.583V59.733a1.679,1.679,0,0,0-2.611-1.4l-4.106,2.74V46.3H25.508V63.313l-2.183,1.458H8.717A6.717,6.717,0,0,0,2,71.488V84.921a6.717,6.717,0,0,0,6.717,6.717H25.508a8.406,8.406,0,0,0,8.4,8.4H70.846a8.23,8.23,0,0,0,1.233-.1,1.632,1.632,0,0,0,.447.1h20.15a1.679,1.679,0,0,0,1.679-1.679V66.517a18.384,18.384,0,0,0-4.5-12.073l-3.691-4.786h9.867a6.717,6.717,0,0,0,6.717-6.717V19.433A6.717,6.717,0,0,0,96.033,12.717ZM8.717,88.279a3.358,3.358,0,0,1-3.358-3.358V71.488a3.358,3.358,0,0,1,3.358-3.358H23.829a1.689,1.689,0,0,0,.932-.282l7.464-4.977v3.58A1.679,1.679,0,0,0,33.9,68.129h8.4a3.358,3.358,0,0,1,3.358,3.358V84.921A3.358,3.358,0,0,1,42.3,88.279ZM87.263,56.573A15.113,15.113,0,0,1,91,66.517V96.675H73.375a13.044,13.044,0,0,1-.212-14.73l.756-1.125a1.679,1.679,0,0,0-.207-2.124l-9.235-9.235A4.258,4.258,0,1,1,70.5,63.439L83.092,76.033l2.374-2.374-6.225-6.225V49.658h2.687ZM99.392,42.942A3.358,3.358,0,0,1,96.033,46.3H77.563a1.689,1.689,0,0,0-.932.282l-7.464,4.977v-3.58A1.679,1.679,0,0,0,67.488,46.3H65.808a3.358,3.358,0,0,1-3.358-3.358V19.433a3.358,3.358,0,0,1,3.358-3.358H96.033a3.358,3.358,0,0,1,3.358,3.358Z" transform="translate(-2 0.717)" fill="#212121"/>
      <path id="Path_22869" data-name="Path 22869" d="M61.9,15.123a6.885,6.885,0,0,0-5.7,1.483l-1.761,1.447-1.76-1.447a6.885,6.885,0,0,0-5.7-1.483,7.259,7.259,0,0,0-4.967,3.721A8.144,8.144,0,0,0,43.987,29.1l9.418,7.375a1.679,1.679,0,0,0,2.069,0L64.892,29.1a8.147,8.147,0,0,0,1.973-10.261A7.262,7.262,0,0,0,61.9,15.123Zm.924,11.328-8.382,6.564L46.057,26.45a4.816,4.816,0,0,1-1.1-5.995,3.928,3.928,0,0,1,2.663-2.037,3.621,3.621,0,0,1,.657-.062,3.563,3.563,0,0,1,2.274.84l2.826,2.326a1.679,1.679,0,0,0,2.133,0L58.333,19.2a3.509,3.509,0,0,1,2.928-.781,3.931,3.931,0,0,1,2.663,2.035,4.818,4.818,0,0,1-1.1,6Z" transform="translate(24.481 6.831)" fill="#212121"/>
      <rect id="Rectangle_2344" data-name="Rectangle 2344" width="24" height="3" transform="translate(6 73.75)" fill="#212121"/>
      <rect id="Rectangle_2345" data-name="Rectangle 2345" width="7" height="3" transform="translate(33 73.75)" fill="#212121"/>
      <rect id="Rectangle_2346" data-name="Rectangle 2346" width="11" height="3" transform="translate(6 80.75)" fill="#212121"/>
      <rect id="Rectangle_2347" data-name="Rectangle 2347" width="20" height="3" transform="translate(20 80.75)" fill="#212121"/>
    </g>
  </g>
</svg>
