<svg xmlns="http://www.w3.org/2000/svg" width="178.401" height="117.414" viewBox="0 0 178.401 117.414">
  <g id="Group_3903" data-name="Group 3903" transform="translate(-90.8 -67.125)">
    <g id="noun_drake_534190_1_" data-name="noun_drake_534190 (1)" transform="translate(159.392 67.125)">
      <path id="Path_22897" data-name="Path 22897" d="M54.539,27.771a1.223,1.223,0,0,0-.911-.477,2.336,2.336,0,0,0-1.5.7,43.349,43.349,0,0,0,1.37-8.463,16.9,16.9,0,0,0-4.128-9.968C47.537,7.756,40.389,3.2,34.885,3.2S22.2,7.756,20.355,9.572A16.927,16.927,0,0,0,16.2,19.54a43.114,43.114,0,0,0,1.37,8.47,2.342,2.342,0,0,0-1.5-.715,1.223,1.223,0,0,0-.917.477,3.767,3.767,0,0,0-.905,2.342c.067.691.1,1.272.128,1.835a23.9,23.9,0,0,0,.336,3.07,6.448,6.448,0,0,0,2.171,4.177,1.413,1.413,0,0,0,.868.287,1.633,1.633,0,0,0,.238,0v2.03c0,6.384,6.348,13.1,7.069,13.851a13.411,13.411,0,0,0,19.636,0c.722-.746,7.039-7.467,7.039-13.851v-2.03a1.626,1.626,0,0,0,.226,0,1.413,1.413,0,0,0,.868-.287,6.476,6.476,0,0,0,2.171-4.177,23.846,23.846,0,0,0,.33-3.088c.031-.538.067-1.119.135-1.835A3.773,3.773,0,0,0,54.539,27.771Zm-4.061,1.718-.061.954c0,3.333,0,5.07.049,6.6v.758A17.826,17.826,0,0,1,47.3,44.27a28.741,28.741,0,0,0-3.21,5.608l-.031-5.883s-4.207-2.293-5.277-2.8a7.479,7.479,0,0,0-2.617-.52L34.885,41.72l-1.168-1.046a9.7,9.7,0,0,0-3.125.52c-1.07.508-4.666,2.8-4.666,2.8l-.055,5.889a29.267,29.267,0,0,0-3.217-5.614c-2.685-3.724-3.3-6.335-3.418-8.072,0-1.358.037-3.021.037-5.785l-.043-.795v-.128s-.269-1-.612-2.385c.251-4.177,1.333-5.742,1.333-5.742a18.138,18.138,0,0,1,.612-6.99c3.241-1.835,7.253-.9,10.09-.232a26.24,26.24,0,0,0,9.949-.135s2.348-3.241-1.052-5.039c2.14.8,3.957,1.994,3.009,5,2.14,0,4.421-.471,6.568.4a18.137,18.137,0,0,1,.612,6.99s1.082,1.572,1.333,5.754C50.754,28.5,50.491,29.465,50.479,29.489ZM34.885,49.553a20.308,20.308,0,0,1-4.6-.569c.856,1.223,4.018,2.11,4.525,2.25-2.354.049-1.835,2.067-4.953-.459s-2.312-5.161-2.312-5.161c.612-.159,2.275-1.718,3.027-2.091a10.316,10.316,0,0,1,3-.544l1.309.654,1.425-.654a7.785,7.785,0,0,1,2.446.544c.746.373,3.021,1.932,3.669,2.091,0,0,.11,2.611-3.021,5.161s-2.085.508-4.427.459c.508-.141,3.669-1.052,4.525-2.25A20.308,20.308,0,0,1,34.885,49.553ZM17.432,38.466A5.6,5.6,0,0,1,15.6,34.858a23.17,23.17,0,0,1-.281-2.99c-.031-.55-.067-1.137-.135-1.835a2.947,2.947,0,0,1,.612-1.6.612.612,0,0,1,.269-.22c.612,0,1.449,1.052,1.9,1.614l.061.079v.544c0,3.327,0,5.057-.043,6.586v1.48A.612.612,0,0,1,17.432,38.466ZM54.4,31.874a23.132,23.132,0,0,1-.318,3,5.517,5.517,0,0,1-1.835,3.608.575.575,0,0,1-.544.049V37.048c0-1.529-.043-3.266-.049-6.556l.031-.612.055-.067c.446-.563,1.272-1.614,1.9-1.614a.612.612,0,0,1,.269.22,2.948,2.948,0,0,1,.612,1.6C54.454,30.737,54.454,31.324,54.4,31.874Z" transform="translate(-14.24 -3.2)" fill="#212121"/>
      <path id="Path_22898" data-name="Path 22898" d="M34.356,44.562c-1.223-.251-3.088-.1-5.088,2.012a.459.459,0,1,0,.667.612,6.525,6.525,0,0,1,1.724-1.351,1.6,1.6,0,0,0,3.186-.1v-.092a3.712,3.712,0,0,1,1.076.654.459.459,0,1,0,.612-.667A4.843,4.843,0,0,0,34.356,44.562Z" transform="translate(-20.009 -19.233)" fill="#212121"/>
      <path id="Path_22899" data-name="Path 22899" d="M35.468,40.344s.086-1.223.086-2.2a12.42,12.42,0,0,0-7.876-.379A15.8,15.8,0,0,0,25.3,40.381c-.086.367-.679,2.507-.679,2.507C27.415,38.4,35.468,40.344,35.468,40.344Z" transform="translate(-18.272 -16.446)" fill="#212121"/>
      <path id="Path_22900" data-name="Path 22900" d="M56.893,44.563a4.843,4.843,0,0,0-2.2,1.082.459.459,0,1,0,.612.667,3.8,3.8,0,0,1,1.076-.648v.086a1.6,1.6,0,0,0,3.186.1A6.574,6.574,0,0,1,61.3,47.2a.459.459,0,1,0,.667-.612C59.981,44.465,58.11,44.312,56.893,44.563Z" transform="translate(-29.876 -19.233)" fill="#212121"/>
      <path id="Path_22901" data-name="Path 22901" d="M61.5,37.754a12.42,12.42,0,0,0-7.876.379c0,.972.086,2.2.086,2.2s8.054-1.939,10.848,2.544c0,0-.612-2.14-.679-2.507A16.239,16.239,0,0,0,61.5,37.754Z" transform="translate(-29.538 -16.442)" fill="#212121"/>
      <path id="Path_22902" data-name="Path 22902" d="M50.337,71.973c-.612-.2-1.963-1.474-3.241-1.89a9.308,9.308,0,0,0-2.018-.373l-1.3.691-1.345-.691a9.4,9.4,0,0,0-2.042.373c-1.284.416-2.617,1.694-3.253,1.89a1.975,1.975,0,0,0,1.315.306,13.16,13.16,0,0,1,2.66-.294c.923,0,1.437.569,2.66.569s1.694-.563,2.617-.569a7.166,7.166,0,0,1,2.006.294A5.088,5.088,0,0,0,50.337,71.973Z" transform="translate(-23.136 -29.038)" fill="#212121"/>
      <path id="Path_22903" data-name="Path 22903" d="M45.689,61.127c-1.743,0-3.455-.453-3.889-.349a3.78,3.78,0,0,0,.41.373,5.663,5.663,0,0,0,3.486,1.1,5.357,5.357,0,0,0,3.92-1.5C49.261,60.625,47.426,61.127,45.689,61.127Z" transform="translate(-24.946 -25.549)" fill="#212121"/>
    </g>
    <g id="noun_SoundCloud_Rapper_1936991" data-name="noun_SoundCloud Rapper_1936991" transform="translate(221.054 99.29)">
      <path id="Path_22887" data-name="Path 22887" d="M45.309,18.507A16.213,16.213,0,0,0,28.92,3.28H26.307A16.221,16.221,0,0,0,9.918,18.507c0,.289,0,.585,0,.882v9.93a.8.8,0,0,0,1.435.593l.641-.641,1.154,4.1.088.184a.721.721,0,0,0,.12.144l.056.056a.737.737,0,0,0,.232.12h0a.737.737,0,0,0,.2,0,.714.714,0,0,0,.2,0h0a.737.737,0,0,0,.24-.12l.04-.04a.569.569,0,0,0,.168-.24.7.7,0,0,0,.048-.1l.689-2.4L16.273,39.5a5.113,5.113,0,0,0,1.266,2.933l4.808,5.418a4.488,4.488,0,0,0,3.366,1.515h3.823A4.5,4.5,0,0,0,32.9,47.846l4.808-5.417a5.1,5.1,0,0,0,1.266-2.909l1.034-8.535.689,2.4a.713.713,0,0,0,.048.1.569.569,0,0,0,.168.24l.04.04a.737.737,0,0,0,.24.12h0a.714.714,0,0,0,.2,0,.737.737,0,0,0,.2,0h0a.737.737,0,0,0,.232-.12l.056-.056a.561.561,0,0,0,.16-.24.7.7,0,0,0,.04-.088l1.154-4.1.641.641a.8.8,0,0,0,1.435-.593V19.388C45.325,19.084,45.325,18.8,45.309,18.507ZM43.85,27.795l-.168-.168a.986.986,0,0,0-.681-.28l.289-5.009a.489.489,0,0,0-.465-.521.481.481,0,0,0-.521.465L41.943,28.4l-.577,2.06-.625-2.212-.3-8.583a.5.5,0,0,0-.5-.473.489.489,0,0,0-.473.5l.264,7.621a.986.986,0,0,0-.5.168.722.722,0,0,0-.136.088h0l-.2.2V18a.737.737,0,1,0-1.475,0V29.326a.8.8,0,0,0,1.218.753l-1.122,9.248a3.638,3.638,0,0,1-.906,2.092L31.8,46.837a3.021,3.021,0,0,1-2.26,1.018H25.7a3.013,3.013,0,0,1-2.26-1.018l-4.808-5.418a3.671,3.671,0,0,1-.906-2.108L16.6,30.087a.8.8,0,0,0,1.218-.753V22.77a.737.737,0,1,0-1.475,0v5.025l-.2-.2h0a.713.713,0,0,0-.136-.088.986.986,0,0,0-.5-.168l.272-7.621a.489.489,0,0,0-.473-.5.5.5,0,0,0-.5.473l-.313,8.575-.633,2.22-.577-2.06-.369-6.131a.465.465,0,0,0-.521-.465.489.489,0,0,0-.465.521l.28,5a.986.986,0,0,0-.681.289l-.168.168V18.587A14.746,14.746,0,0,1,26.307,4.738H28.92a14.746,14.746,0,0,1,14.914,13.84v.8Z" transform="translate(-9.91 -3.278)" fill="#212121"/>
      <path id="Path_22888" data-name="Path 22888" d="M25.378,16.518a.489.489,0,0,0,.489-.489A14.962,14.962,0,0,1,28.8,6.869a.492.492,0,0,0-.745-.641,15.66,15.66,0,0,0-3.206,9.809.489.489,0,0,0,.529.481Z" transform="translate(-12.876 -3.83)" fill="#212121"/>
      <ellipse id="Ellipse_269" data-name="Ellipse 269" cx="0.625" cy="0.625" rx="0.625" ry="0.625" transform="translate(11.877 13.137)" fill="#212121"/>
      <path id="Path_22889" data-name="Path 22889" d="M21.459,8.759a.5.5,0,0,0-.673-.184,13.793,13.793,0,0,0-6.58,7.7.489.489,0,0,0,.345.6h.128a.5.5,0,0,0,.473-.369,13.079,13.079,0,0,1,6.1-7.077.489.489,0,0,0,.208-.673Z" transform="translate(-10.76 -4.317)" fill="#212121"/>
      <ellipse id="Ellipse_270" data-name="Ellipse 270" cx="0.585" cy="0.585" rx="0.585" ry="0.585" transform="translate(2.933 12.84)" fill="#212121"/>
      <path id="Path_22890" data-name="Path 22890" d="M41.935,10.9a.494.494,0,1,0-.665.729,12.462,12.462,0,0,1,2.549,3.382.489.489,0,0,0,.449.289.5.5,0,0,0,.2-.04.489.489,0,0,0,.248-.649A13.215,13.215,0,0,0,41.935,10.9Z" transform="translate(-16.106 -4.766)" fill="#212121"/>
      <ellipse id="Ellipse_271" data-name="Ellipse 271" cx="0.529" cy="0.529" rx="0.529" ry="0.529" transform="translate(23.906 4.858)" fill="#212121"/>
      <path id="Path_22891" data-name="Path 22891" d="M25.452,23.567a.737.737,0,0,0-1.475,0V35.492l-1.4-1.162V23.567a.737.737,0,0,0-1.475,0V34.386a1.346,1.346,0,0,0,.489,1.042l1.659,1.37a1.338,1.338,0,0,0,.858.313,1.362,1.362,0,0,0,.577-.128,1.338,1.338,0,0,0,.8-1.226Z" transform="translate(-12.132 -7.161)" fill="#212121"/>
      <path id="Path_22892" data-name="Path 22892" d="M38.919,17.319a.737.737,0,0,0-.737.737v16.1l-1.4-1.162V22.232a.737.737,0,1,0-1.475,0v1.891H31.554V16.6a.493.493,0,1,0-.986,0v7.525H28.8a7.8,7.8,0,0,1,.064-1.763.737.737,0,1,0-1.451-.264c-.353,1.939-.1,5.947,3.366,7.413a.721.721,0,0,0,.289.056.737.737,0,0,0,.289-1.419,4.007,4.007,0,0,1-2.268-2.557H35.3v7.453a1.346,1.346,0,0,0,.489,1.042l1.683,1.37a1.338,1.338,0,0,0,.858.313,1.362,1.362,0,0,0,.577-.128,1.338,1.338,0,0,0,.8-1.226V18.056a.737.737,0,0,0-.793-.737Z" transform="translate(-13.362 -5.826)" fill="#212121"/>
      <ellipse id="Ellipse_272" data-name="Ellipse 272" cx="0.625" cy="0.625" rx="0.625" ry="0.625" transform="translate(17.078 8.272)" fill="#212121"/>
      <path id="Path_22893" data-name="Path 22893" d="M35.372,50.6,32.5,49.8h-.1a2.012,2.012,0,0,0-1.042.136l-.248.1a.569.569,0,0,1-.409,0l-.321-.112a2.028,2.028,0,0,0-1.258,0l-2.5.721a.737.737,0,0,0,.208,1.443.8.8,0,0,0,.208,0l2.5-.721a.561.561,0,0,1,.353,0l.321.112a2.044,2.044,0,0,0,1.459,0l.248-.1a.633.633,0,0,1,.248-.04l2.8.8a.737.737,0,0,0,.393-1.419Z" transform="translate(-13.125 -12.512)" fill="#212121"/>
      <path id="Path_22894" data-name="Path 22894" d="M33.684,52.7a8.014,8.014,0,0,1-4.328,0,.739.739,0,1,0-.489,1.394,8.343,8.343,0,0,0,2.581.369,9.907,9.907,0,0,0,2.622-.353.737.737,0,1,0-.386-1.41Z" transform="translate(-13.577 -13.08)" fill="#212121"/>
      <path id="Path_22895" data-name="Path 22895" d="M35,44.885h.1a.737.737,0,0,0,.088-1.467l-1.6-.2a.739.739,0,1,0-.184,1.467Z" transform="translate(-14.446 -11.209)" fill="#212121"/>
      <path id="Path_22896" data-name="Path 22896" d="M28.688,44.885l1.6-.2a.739.739,0,0,0-.184-1.467l-1.6.2a.737.737,0,0,0,.088,1.467Z" transform="translate(-13.477 -11.209)" fill="#212121"/>
      <path id="Path_22908" data-name="Path 22908" d="M11.017,28.813l1.618-.936,1.532,3.916,1.447-4.257,1.022.766.6-5.874L19.445,28.3l.426,2.3s2.384,2.469,2.384,1.788S22.6,20.64,22.6,20.64l2.128,1.447h7.492l1.192.341V30.6l1.7,1.788.426-13.877,1.192,7.237,1.618-4.768V28.3l1.788-.426A40.784,40.784,0,0,0,41.5,31.793,28.173,28.173,0,0,1,43.028,28.3l1.447.511V17.745s-2.809-13.536-15.41-13.2-15.856,7.1-15.856,7.1l-1.6,4.056Z" transform="translate(-10.13 -3.53)" fill="#212121"/>
    </g>
    <g id="Group_3900" data-name="Group 3900" transform="translate(102.967 95.344)">
      <path id="Path_22909" data-name="Path 22909" d="M34.088.159a3.249,3.249,0,0,0-1.616.813A8.115,8.115,0,0,0,31.32,2.549c-.794,1.239-.765,1.2-.9,1.161a3.106,3.106,0,0,0-1.645-.092A3.138,3.138,0,0,0,27.008,4.7a9.634,9.634,0,0,0-1.573,2.662,3.3,3.3,0,0,0,.208,2.105l.16.339-.281.256a1.543,1.543,0,0,0-.571,1.176c-.015.242-.044.382-.077.382a12.753,12.753,0,0,0-1.674.871,10.379,10.379,0,0,0-1.829,1.471,11.872,11.872,0,0,0-2.512,3.7c-.329.648-.6,1.2-.6,1.224s.087.082.194.121.194.1.194.135-.121.382-.271.779-.479,1.35-.731,2.124-.542,1.631-.648,1.907a3.713,3.713,0,0,0-.363,1.747,3.819,3.819,0,0,0,.077.629,7.667,7.667,0,0,1,.1.992c.029.45.068.91.092,1.016s.058.266.077.348c.034.14.024.165-.1.208a.525.525,0,0,1-.518-.106l-.14-.1.034.111c.029.092.019.106-.044.082s-.073-.015-.048.024,0,.044-.1.019-.126-.015-.126.073v.1l-.169-.1c-.179-.106-.2-.087-.121.116.044.116.039.126-.034.1-.048-.019-.15-.053-.223-.077a.7.7,0,0,1-.218-.1c-.073-.053-.068-.048,0,.068.1.155.1.189.024.16-.039-.015-.068.019-.068.092,0,.092.034.136.179.2a2.666,2.666,0,0,0,1.752-.242c.116-.048.111.116-.039.668a7.017,7.017,0,0,0-.165.973,1.892,1.892,0,0,1-.145.682,2.4,2.4,0,0,0-.247.832,1.786,1.786,0,0,0,.3.818,2.483,2.483,0,0,1,.252.508c.063.169.126.344.14.382s.116.334.223.653l.194.581-.029.653a2.114,2.114,0,0,0,.048.837,2.251,2.251,0,0,0,.745.837c.387.29.421.339.469.624a5.824,5.824,0,0,0,.2.658l.16.469L19,39.72a8.344,8.344,0,0,0-.716,1.442,6.635,6.635,0,0,0-.339,2.328,3.18,3.18,0,0,0,1.428,2.178,1.125,1.125,0,0,0,.726.145,1.474,1.474,0,0,0,.857-.189l.4-.184.281.281a3.029,3.029,0,0,0,2.725,1.055,4.426,4.426,0,0,0,1.186-.082,12.3,12.3,0,0,0,1.81-.648c.29-.131.474-.194.5-.165s2.425-1.558,3.334-2.192c.673-.474,1.239-.861,1.263-.866a6.471,6.471,0,0,1,.45,1.37,10.238,10.238,0,0,1,.044,4.384,6.847,6.847,0,0,1-1.51,3.029,4.426,4.426,0,0,1-2.8.871l-.871.053-.479-.131a2.813,2.813,0,0,0-.5-.111c-.01.015.068.063.174.111s.2.106.2.126c0,.048-.116.053-.16.01a4.254,4.254,0,0,0-.736-.261c-.024,0,.019.053.1.121l.145.121-.218-.034-.218-.029.1.111.1.106-.218-.029-.218-.034.131.111a.441.441,0,0,1,.136.15c0,.019-.087.048-.194.063-.126.019-.179.048-.155.087a.471.471,0,0,1,.034.2c0,.116.024.15.121.16.165.024.237.1.145.155-.053.034-.034.048.087.048.16,0,.223.092.073.1-.053,0-.063.015-.029.029s.048.048.019.106-.029.082.1.063.145-.01.126.077-.015.092.126.048a13.021,13.021,0,0,1,1.287-.329,15.274,15.274,0,0,0,1.791-.469,13.119,13.119,0,0,0,3.881-2.183,6.637,6.637,0,0,0,.992-2.163,9.443,9.443,0,0,0,.552-3.329c-.029-.218-.063-.518-.077-.663s-.053-.387-.077-.532-.111-.682-.194-1.186-.179-1.094-.218-1.307a2.409,2.409,0,0,1-.048-.4c.024-.019.453.342.745.527a5.2,5.2,0,0,0,1.85.643A4.017,4.017,0,0,0,39,42.476c1.548-.776,1.8-1.207,1.8-1.207a4.834,4.834,0,0,0,.89-1.326c.068-.169.14-.29.15-.271s.073.208.135.407c.16.537.339.992,1.161,2.976.46,1.1.465.271.024-.871-.363-.929-.987-2.816-1.089-3.276a2.2,2.2,0,0,1-.019-.513,4.761,4.761,0,0,0-.45-2.158l-.169-.382-.01-.8,0-.808.779-.823a17.187,17.187,0,0,0,2.9-3.673,8.045,8.045,0,0,0,1.016-4.888,6.336,6.336,0,0,0-.29-1.142l-.131-.421.242-.329a11.534,11.534,0,0,0,1.239-2.284,7.642,7.642,0,0,0,.508-4.128c-.252-1.641-.339-2.294-.387-2.908l-.058-.658.135-.227a5.167,5.167,0,0,0,.794-3.2A8.162,8.162,0,0,0,47.6,7.481a9.125,9.125,0,0,0-.668-1.374l-.116-.179.237-.358a2.036,2.036,0,0,0,.46-1.447,1.38,1.38,0,0,0-.184-.939C46.68,1.862,44.672.865,41.9.488A3.8,3.8,0,0,0,40.123.5a7.229,7.229,0,0,0-1.2,1.161c0,.087-.082.039-.324-.194A5.133,5.133,0,0,0,34.088.159ZM19.522,19.448a8.958,8.958,0,0,1,2.758,1.466,40.408,40.408,0,0,0,4.912,2.72,13.626,13.626,0,0,1,1.486.8c.019.048.068.45.111.9.087.944.169,1.708.31,2.807.053.426.121.958.15,1.186s.073.518.1.653.092.479.145.774c.189,1,.445,2.187.653,3.049.039.16.179.745.315,1.307.373,1.544.687,2.768,1.239,4.791.121.45.237.866.247.919s.082.281.145.508c.223.769.256.929.223.987a12.647,12.647,0,0,1-1.055.929c-.339.261-1.621,1.1-2.323,1.529a13.767,13.767,0,0,1-3.155,1.549,5.18,5.18,0,0,1-3.039-.266,4.308,4.308,0,0,1-1.045-.915.322.322,0,0,1-.073-.218.942.942,0,0,1,.348-.247,5.46,5.46,0,0,0,1.19-.794,5.549,5.549,0,0,0,.963-2.41,4.607,4.607,0,0,0,.116-1.258,5.2,5.2,0,0,0-.281-1.863c-.111-.392-.324-.639-1.22-1.423a5.32,5.32,0,0,0-1.36-1,7.24,7.24,0,0,0-1.374-.513,2.241,2.241,0,0,0-.557-.068,1.224,1.224,0,0,0-.624.14,1.3,1.3,0,0,1-.6.15,1.022,1.022,0,0,1-.377-.039c-.092-.068-.077-.479.029-.721.087-.2.387-.523.494-.523.131,0-.039-.1-.377-.223a1.6,1.6,0,0,1-.537-.3,2.763,2.763,0,0,1-.542-.832.211.211,0,0,0-.053-.131,1,1,0,0,1-.077-.368c-.034-.407.092-.682.561-1.244a3.241,3.241,0,0,0,.769-1.331,2.13,2.13,0,0,1,.469-.9,6.556,6.556,0,0,0,.808-1.37,1.894,1.894,0,0,0-.039-1.263,1.56,1.56,0,0,0-.237-.368l-.116-.106.116.281a1.824,1.824,0,0,1-.087,1.612c-.116.237-.145.247-1.244.566-.358.106-.416.111-.465.048A6.825,6.825,0,0,1,17.179,27a.191.191,0,0,1,.121-.106,2.339,2.339,0,0,1,.736.1c.044.015.082,0,.082-.019a2.381,2.381,0,0,0-.784-.445c-.339-.135-.358-.189-.407-.958-.039-.629-.039-.629.382-.373.353.213.416.213.256,0-.073-.092-.111-.169-.082-.169a.1.1,0,0,1,.077.048.113.113,0,0,0,.077.048c.024,0,.01-.058-.039-.135-.073-.106-.039-.092.174.087.2.16.242.184.184.092-.044-.068-.068-.14-.048-.155s-.034-.1-.111-.184c-.121-.131-.126-.145-.029-.1.169.087.126,0-.184-.358a1.736,1.736,0,0,1-.29-.411,4.975,4.975,0,0,1,.29-.847c.184-.426.658-1.723.871-2.4.111-.358.271-.823.353-1.031.126-.339.155-.377.247-.348C19.11,19.356,19.323,19.4,19.522,19.448ZM32.4,26.335a3.306,3.306,0,0,0,.586.286,1.137,1.137,0,0,1,.445.237,21.922,21.922,0,0,1,.6,3.058c.324,2.337.2,5.076-.266,6-.092.194-.189.334-.213.324a1.08,1.08,0,0,1-.068-.353c-.044-.411-.155-1.549-.252-2.531-.044-.411-.106-1.079-.145-1.476a24.9,24.9,0,0,0-.828-5.062c-.092-.339-.165-.629-.165-.644C32.1,26.131,32.157,26.16,32.4,26.335Zm8.048.15a3.823,3.823,0,0,1,.9.852A2.616,2.616,0,0,1,41.5,29.17a5.189,5.189,0,0,1-.682,1.883,3.559,3.559,0,0,1-.726,1.04,15.829,15.829,0,0,1-1.708,1.437l-.3.2-.576,0c-.687,0-.808-.053-1.021-.445a2.662,2.662,0,0,0-.426-.532c-.155-.15-.276-.29-.261-.315.044-.068.261-1.2.358-1.829a12.013,12.013,0,0,0,.087-1.873v-1.3l.678.034c.818.034.9,0,1.321-.44a4.087,4.087,0,0,1,.421-.4,2.341,2.341,0,0,1,1.166-.3A.839.839,0,0,1,40.452,26.485ZM17.837,30.017a1.3,1.3,0,0,1-.421.8l-.223.237.019-.3a3.112,3.112,0,0,1,.136-.615c.1-.286.131-.315.261-.334C17.837,29.775,17.852,29.79,17.837,30.017ZM39.46,33.332c-.4.673-.382.653-.663.571-.387-.116-.392-.116-.213-.194a4.354,4.354,0,0,0,.944-.74c.106-.106.2-.189.213-.174A3.315,3.315,0,0,1,39.46,33.332Zm.7-.358c.111.155.1.218-.116.663a4.117,4.117,0,0,0-.194.431c0,.015.063-.034.145-.111s.155-.126.169-.111a.59.59,0,0,1-.053.252c-.087.252-.063.339.044.165.527-.842.581-.9.779-.75.077.058.082.1.044.329a2.139,2.139,0,0,0-.01.527c.019.145.048.431.063.629l.034.363-.329-.319a4.041,4.041,0,0,0-1.152-.842,1.306,1.306,0,0,1-.363-.218,8.381,8.381,0,0,1,.823-1.113C40.065,32.868,40.118,32.916,40.157,32.974Zm-4.181.1a.818.818,0,0,1,.223.315.626.626,0,0,0,.247.3c.092.058.15.121.126.136a1.762,1.762,0,0,1-.329.121,4.257,4.257,0,0,0-.639.271c-.392.2-.406.194-.261-.2.053-.14.14-.421.2-.619s.116-.392.126-.431C35.69,32.892,35.791,32.926,35.975,33.076ZM19.812,36.841c.619-.039,1.113.034,1.113.169s-.431.324-.842.363c-.213.019-.513.053-.663.073-.256.029-.271.024-.4-.126-.16-.184-.165-.3-.029-.44.092-.092.136-.1.4-.068A3.181,3.181,0,0,0,19.812,36.841Zm1.6,1.094a2.208,2.208,0,0,1-.421.3,2.816,2.816,0,0,0-1.05,1.108,8.142,8.142,0,0,0-.634,2.134c-.024.189-.019.2.029.1.029-.068.106-.3.169-.532A7.922,7.922,0,0,1,20.514,39c.213-.208.678-.465.731-.411.019.019-.039.116-.136.218a1.861,1.861,0,0,0-.377.566c0,.019.111-.068.247-.189a4.346,4.346,0,0,1,.532-.4,5.183,5.183,0,0,1,1.282-.552.8.8,0,0,0,.3-.1.463.463,0,0,1,.59.029.923.923,0,0,1,.179.978c-.039.077-.116.276-.174.445a7.355,7.355,0,0,1-.992,2.033,1.74,1.74,0,0,0-.286.557,16.362,16.362,0,0,1-.794,2.362,2.4,2.4,0,0,0-.252.411c-.169.324-.368.484-.6.494-.16,0-.247-.3-.247-.9a1.9,1.9,0,0,0-.034-.508,4.634,4.634,0,0,0-.169,1.3c.034.3,0,.329-.324.266a1.92,1.92,0,0,1-.982-.561,2.5,2.5,0,0,1-.7-1.3,4.3,4.3,0,0,1,.4-2.841,5.213,5.213,0,0,1,1.95-2.521c.145-.1.353-.252.465-.334C21.327,37.9,21.409,37.867,21.409,37.935Z" transform="translate(-15.124 -0.06)" fill="#212121"/>
      <path id="Path_22910" data-name="Path 22910" d="M139.547,471.142a9.7,9.7,0,0,0-1.655.436c-.547.223-.9.455-.823.532.015.015.073,0,.131-.029.082-.044.116-.044.145,0s.068.044.111.024c.111-.039.106.058-.015.208s-.126.227,0,.16c.063-.034.1-.034.111,0s.073.01.145-.048a.45.45,0,0,1,.169-.1c.019,0,0,.019-.034.048s-.053.058-.034.077.063,0,.106-.029c.1-.087.155-.019.063.082-.136.16-.155.223-.053.169a.307.307,0,0,1,.16-.044,1.961,1.961,0,0,0,.474-.2,4.581,4.581,0,0,1,2.429-.561,3.293,3.293,0,0,1,.992.087,11.441,11.441,0,0,1,1.389.561c.547.271.484.189-.2-.266a10.932,10.932,0,0,0-1.907-1.089A4.3,4.3,0,0,0,139.547,471.142Z" transform="translate(-131.157 -448.274)" fill="#212121"/>
      <path id="Path_22911" data-name="Path 22911" d="M165.617,528.227a3.5,3.5,0,0,0-.508.121,3.805,3.805,0,0,0-.944.513c-.019.034-.015.048.01.034a3.679,3.679,0,0,1,1.52-.421,7.534,7.534,0,0,1,2.3.218c.073.024.082.019.044-.024a4.8,4.8,0,0,0-1.345-.436A3.478,3.478,0,0,0,165.617,528.227Z" transform="translate(-156.941 -502.629)" fill="#212121"/>
      <path id="Path_22912" data-name="Path 22912" d="M151.469,537.226c-.281.145-1,.406-2.637.963a9.356,9.356,0,0,1-2.971.629,4.723,4.723,0,0,0-.707.068c-.077.048-.015.169.126.242.237.131.121.3-.44.624-.286.165-.319.2-.2.2.169,0,.169.073,0,.14l-.135.053.145-.024a1.986,1.986,0,0,0,.266-.053l.121-.029-.116.1c-.14.126-.087.126.165,0s.353-.126.237.01l-.092.106.155-.111a.928.928,0,0,0,.189-.155c.015-.029.092-.034.169-.019.111.024.194,0,.363-.116a.584.584,0,0,1,.281-.121.13.13,0,0,0,.126-.048c.053-.068.073-.068.194.019.155.111.4.126.479.029.039-.048.116-.053.3-.024s.271.024.334-.034a.193.193,0,0,1,.189-.044.2.2,0,0,0,.174-.029c.058-.048.092-.034.194.058l.126.116-.034-.135c-.039-.155.019-.169.194-.053.116.077.121.077.121-.048s.073-.169.111-.068c.015.034.029.015.029-.048,0-.111.1-.155.1-.048,0,.039.024.024.053-.019.053-.1.208-.092.489.01.184.068.31.034.184-.048-.063-.044-.063-.048,0-.048.039,0,0-.044-.082-.1-.131-.077-.257-.227-.257-.3a4.654,4.654,0,0,1,.479-.319,11,11,0,0,0,1.868-1.452A1.694,1.694,0,0,0,151.469,537.226Z" transform="translate(-138.239 -511.111)" fill="#212121"/>
      <path id="Path_22913" data-name="Path 22913" d="M132.2,675.209a.985.985,0,0,1-.537.692c-.237.1-.087.135.165.039a.7.7,0,0,0,.5-.6.823.823,0,0,0-.024-.319C132.271,674.953,132.246,675,132.2,675.209Z" transform="translate(-125.908 -642.329)" fill="#212121"/>
      <path id="Path_22914" data-name="Path 22914" d="M80.421,683.278c-.2.131-.421.324-.421.377,0,.107.871.053,1.084-.068a1.577,1.577,0,0,1,.416-.082l.315-.029-.29-.136A1.233,1.233,0,0,0,80.421,683.278Z" transform="translate(-76.86 -650.117)" fill="#212121"/>
      <path id="Path_22915" data-name="Path 22915" d="M485.307,549.435a1.454,1.454,0,0,0-1.142,1.152,3.147,3.147,0,0,0-.145.837l-.019.46.116-.508a2.719,2.719,0,0,1,.7-1.544,1.732,1.732,0,0,1,.566-.174c.949-.169,1.607.111,1.858.779a1.87,1.87,0,0,1,.1.527c0,.145.024.266.048.266.068,0,.063-.155-.024-.6a1.291,1.291,0,0,0-.455-.886A2.809,2.809,0,0,0,485.307,549.435Z" transform="translate(-461.309 -522.826)" fill="#212121"/>
      <path id="Path_22916" data-name="Path 22916" d="M520.8,604.819a2.634,2.634,0,0,1-.784,1.854c-.232.213-.242.223-.121.223a1.032,1.032,0,0,0,.6-.3,2.972,2.972,0,0,0,.368-1.853l-.053-.242Z" transform="translate(-495.393 -575.249)" fill="#212121"/>
      <path id="Path_22917" data-name="Path 22917" d="M510,610.278a.983.983,0,0,0,.077.242,1.718,1.718,0,0,1,.048,1.026.391.391,0,0,0-.058.179.564.564,0,0,0,.194-.131c.218-.194.223-.319.029-.808C510.14,610.418,510,610.166,510,610.278Z" transform="translate(-486.051 -580.722)" fill="#212121"/>
      <path id="Path_22918" data-name="Path 22918" d="M464.243,616.258a.869.869,0,0,1-.131.576.925.925,0,0,0-.063.9c.082.1.087.1.4.015l.315-.082-.315-.024c-.387-.029-.4-.068-.223-.629a1.726,1.726,0,0,0,.1-.91C464.267,615.9,464.219,615.992,464.243,616.258Z" transform="translate(-442.24 -586.184)" fill="#212121"/>
      <path id="Path_22919" data-name="Path 22919" d="M473,685.669a.445.445,0,0,0,.319.3c.106,0,.073-.063-.131-.237C473.019,685.587,473,685.582,473,685.669Z" transform="translate(-450.842 -652.435)" fill="#212121"/>
      <ellipse id="Ellipse_273" data-name="Ellipse 273" cx="4.051" cy="4.051" rx="4.051" ry="4.051" transform="translate(18.403 34.02)" fill="#fff"/>
    </g>
    <g id="Group_3902" data-name="Group 3902" transform="translate(90.8 135.178)">
      <g id="noun_competition_2724337" transform="translate(0 0)">
        <path id="Path_22907" data-name="Path 22907" d="M178.892,124.932H126.33v-18.1c0-1.88-1.855-3.4-4.142-3.4H65.482c-2.288,0-4.142,1.524-4.142,3.4v18.1H8.776c-2.288,0-4.142,1.524-4.142,3.4v21.057c0,1.88,1.855,3.4,4.142,3.4H178.892c2.288,0,4.142-1.524,4.142-3.4V128.335C183.035,126.456,181.179,124.932,178.892,124.932Zm-170.116,3.4H61.34v21.057H8.776Zm56.706,3.4v-24.9h56.706v42.555H65.482Zm114.389,17.654H126.33l.212-21.057h53.329Z" transform="translate(-4.634 -103.434)" fill="#212121"/>
      </g>
      <path id="Path_22886" data-name="Path 22886" d="M39.957,20.849a1.538,1.538,0,0,1,.478,1.435L39.08,28.025a1.4,1.4,0,0,0,2.153,1.515l5.023-3.03a1.689,1.689,0,0,1,1.515,0l5.023,3.03a1.449,1.449,0,0,0,2.153-1.595L53.592,22.2a1.424,1.424,0,0,1,.478-1.435l4.465-3.827a1.461,1.461,0,0,0-.8-2.552l-5.98-.319a1.418,1.418,0,0,1-1.2-.877L48.33,7.772a1.473,1.473,0,0,0-2.711,0l-2.233,5.422a1.533,1.533,0,0,1-1.2.877l-5.821.478a1.449,1.449,0,0,0-.8,2.552Z" transform="translate(42.226 5.377)" fill="none" stroke="#212121" stroke-width="2.5"/>
      <path id="Path_22920" data-name="Path 22920" d="M37.688,14.365a.825.825,0,0,1,.256.769l-.727,3.077a.751.751,0,0,0,1.154.812L41.065,17.4a.905.905,0,0,1,.812,0l2.693,1.624a.777.777,0,0,0,1.154-.855L45,15.092a.763.763,0,0,1,.256-.769l2.394-2.052a.783.783,0,0,0-.427-1.368l-3.206-.171a.76.76,0,0,1-.641-.47l-1.2-2.906a.789.789,0,0,0-1.453,0l-1.2,2.906a.822.822,0,0,1-.641.47l-3.12.256a.777.777,0,0,0-.427,1.368Z" transform="translate(-12.792 22.148)" fill="none" stroke="#212121" stroke-width="1.5"/>
      <path id="Path_22921" data-name="Path 22921" d="M37.688,14.365a.825.825,0,0,1,.256.769l-.727,3.077a.751.751,0,0,0,1.154.812L41.065,17.4a.905.905,0,0,1,.812,0l2.693,1.624a.777.777,0,0,0,1.154-.855L45,15.092a.763.763,0,0,1,.256-.769l2.394-2.052a.783.783,0,0,0-.427-1.368l-3.206-.171a.76.76,0,0,1-.641-.47l-1.2-2.906a.789.789,0,0,0-1.453,0l-1.2,2.906a.822.822,0,0,1-.641.47l-3.12.256a.777.777,0,0,0-.427,1.368Z" transform="translate(107.61 22.148)" fill="none" stroke="#212121" stroke-width="1.5"/>
    </g>
  </g>
</svg>
