<svg xmlns="http://www.w3.org/2000/svg" width="106.573" height="104.843" viewBox="0 0 106.573 104.843">
  <g id="noun_usability_3305937" transform="translate(-0.5 -1.041)">
    <g id="Group_3889" data-name="Group 3889" transform="translate(1 1.541)">
      <g id="Group_3879" data-name="Group 3879">
        <path id="Path_22843" data-name="Path 22843" d="M5.958,38.667H37.5c0,.167.071,16.95.07,16.789L35.1,53.015a7.079,7.079,0,0,0-9.972.037c-2.918,2.959-1.416,6.64-.207,9.6l6.733,16.267a25.064,25.064,0,0,0,5.87,8.554H36.97a1.6,1.6,0,0,0-1.6,1.6v14.708a1.6,1.6,0,0,0,1.6,1.6h35.5a1.6,1.6,0,0,0,1.6-1.6V89.076a1.592,1.592,0,0,0-1.533-1.586,25.422,25.422,0,0,0,7.679-18.356l-.048-11.846A6.215,6.215,0,0,0,70.1,52.449l-.01-2.152A6.22,6.22,0,0,0,59.9,45.547a6.2,6.2,0,0,0-9.957-3.724l-.011-3.155H101.63a4.949,4.949,0,0,0,4.943-4.943V6.483a4.948,4.948,0,0,0-4.943-4.942H5.958A4.956,4.956,0,0,0,1,6.483V33.724A4.956,4.956,0,0,0,5.958,38.667ZM41.14,21.225l-2.873-2.089h3.538a.8.8,0,0,0,.761-.553l1.095-3.369,1.1,3.369a.8.8,0,0,0,.761.553h3.554L46.2,21.225a.786.786,0,0,0-.212.245,6.226,6.226,0,0,0-2.326-.457c-.131,0-.263,0-.391.012a5.748,5.748,0,0,0-1.894.472A.794.794,0,0,0,41.14,21.225ZM49.9,27.214a6.146,6.146,0,0,0-2.169-4.661l-.122-.376L52,18.983a.8.8,0,0,0-.47-1.446H46.1l-1.676-5.158a.832.832,0,0,0-1.521,0l-1.676,5.158H35.807a.8.8,0,0,0-.47,1.446l4.393,3.194-.162.5a6.565,6.565,0,0,0-2.113,4.863l.01,2.331H9.8V10.338H97.775V29.869H49.908Zm20.967,74.971H38.57V90.676h32.3Zm-20.9-55.455a3.862,3.862,0,0,1,3.823-3.855,3.821,3.821,0,0,1,3.823,3.817l.032,3.648a1.228,1.228,0,0,0,1.2,1.19,1.2,1.2,0,0,0,1.195-1.2,3.823,3.823,0,0,1,7.646-.011l.032,7.006a1.2,1.2,0,0,0,1.2,1.194h0a1.2,1.2,0,0,0,1.2-1.2,3.823,3.823,0,0,1,7.646-.011l.048,11.839a22.99,22.99,0,0,1-8.946,18.331H41.225a22.8,22.8,0,0,1-7.349-9.47L27.144,61.744c-1.275-3.126-1.985-5.3-.31-7a4.794,4.794,0,0,1,6.577-.027l4.527,4.479a1.2,1.2,0,0,0,2.044-.858c-.063-15.616-.086-20.663-.128-30.817a3.986,3.986,0,0,1,3.563-4.1l.243-.008a3.826,3.826,0,0,1,3.84,3.805l.064,19.515a1.2,1.2,0,0,0,1.2,1.2A1.17,1.17,0,0,0,49.963,46.729ZM4.2,6.483A1.753,1.753,0,0,1,5.958,4.74H101.63a1.745,1.745,0,0,1,1.744,1.743V33.724a1.746,1.746,0,0,1-1.744,1.744h-51.7l-.013-4H98.575a.8.8,0,0,0,.8-.8V9.539a.8.8,0,0,0-.8-.8H9a.8.8,0,0,0-.8.8V30.669a.8.8,0,0,0,.8.8H37.471l.017,4H5.958A1.754,1.754,0,0,1,4.2,33.724Z" transform="translate(-1 -1.541)" stroke="#000" stroke-width="1"/>
      </g>
      <g id="Group_3880" data-name="Group 3880" transform="translate(13.757 10.347)">
        <path id="Path_22844" data-name="Path 22844" d="M26.119,13.661H20.7L19.02,8.5a.832.832,0,0,0-1.521,0l-1.676,5.157H10.4a.8.8,0,0,0-.47,1.446L14.317,18.3l-1.676,5.157a.8.8,0,0,0,1.231.894L18.26,21.16l4.387,3.187a.8.8,0,0,0,1.231-.894L22.2,18.3l4.388-3.188a.8.8,0,0,0-.47-1.447Zm-5.328,3.683a.8.8,0,0,0-.291.894L21.6,21.606,18.73,19.524a.8.8,0,0,0-.94,0l-2.866,2.082,1.1-3.369a.8.8,0,0,0-.291-.894L12.861,15.26H16.4a.8.8,0,0,0,.761-.553l1.095-3.369,1.095,3.369a.8.8,0,0,0,.761.553h3.543Z" transform="translate(-9.6 -8.009)" stroke="#000" stroke-width="1"/>
      </g>
      <g id="Group_3881" data-name="Group 3881" transform="translate(54.254 10.347)">
        <path id="Path_22845" data-name="Path 22845" d="M51.437,13.661H46.013L44.338,8.5a.832.832,0,0,0-1.521,0L41.14,13.661H35.717a.8.8,0,0,0-.47,1.446L39.635,18.3l-1.676,5.158a.8.8,0,0,0,1.231.894l4.387-3.187,4.388,3.187a.8.8,0,0,0,1.231-.894L47.52,18.3l4.387-3.188a.8.8,0,0,0-.47-1.447Zm-5.327,3.683a.8.8,0,0,0-.291.894l1.095,3.369-2.866-2.082a.8.8,0,0,0-.94,0l-2.866,2.082,1.095-3.369a.8.8,0,0,0-.291-.894L38.179,15.26h3.543a.8.8,0,0,0,.761-.553l1.095-3.369,1.095,3.369a.8.8,0,0,0,.761.553h3.543Z" transform="translate(-34.917 -8.009)" stroke="#000" stroke-width="1"/>
      </g>
      <g id="Group_3882" data-name="Group 3882" transform="translate(74.503 10.347)">
        <path id="Path_22846" data-name="Path 22846" d="M64.1,13.661H58.672L57,8.5a.832.832,0,0,0-1.521,0L53.8,13.661H48.376a.8.8,0,0,0-.47,1.446L52.293,18.3l-1.676,5.158a.8.8,0,0,0,1.231.894l4.387-3.187,4.388,3.187a.8.8,0,0,0,1.231-.894L60.178,18.3l4.387-3.188a.8.8,0,0,0-.47-1.447Zm-5.327,3.683a.8.8,0,0,0-.291.894l1.095,3.369-2.866-2.082a.8.8,0,0,0-.94,0L52.9,21.606l1.095-3.369a.8.8,0,0,0-.291-.894L50.837,15.26H54.38a.8.8,0,0,0,.761-.553l1.095-3.369,1.095,3.369a.8.8,0,0,0,.761.553h3.543Z" transform="translate(-47.576 -8.009)" stroke="#000" stroke-width="1"/>
      </g>
      <g id="Group_3883" data-name="Group 3883" transform="translate(83.283 65.44)">
        <path id="Path_22847" data-name="Path 22847" d="M67.7,43.251a.8.8,0,0,0-.8-.8H53.865a.8.8,0,1,0,0,1.6H66.9A.8.8,0,0,0,67.7,43.251Z" transform="translate(-53.065 -42.451)" stroke="#000" stroke-width="1"/>
      </g>
      <g id="Group_3884" data-name="Group 3884" transform="translate(83.282 50.258)">
        <path id="Path_22848" data-name="Path 22848" d="M54.345,42.886,65.638,34.4a.8.8,0,0,0-.961-1.279L53.384,41.607a.8.8,0,0,0,.961,1.279Z" transform="translate(-53.065 -32.96)" stroke="#000" stroke-width="1"/>
      </g>
      <g id="Group_3885" data-name="Group 3885" transform="translate(83.282 72.137)">
        <path id="Path_22849" data-name="Path 22849" d="M53.225,46.957a.8.8,0,0,0,.159,1.12l11.293,8.488a.8.8,0,0,0,.961-1.279L54.345,46.8A.8.8,0,0,0,53.225,46.957Z" transform="translate(-53.065 -46.638)" stroke="#000" stroke-width="1"/>
      </g>
      <g id="Group_3886" data-name="Group 3886" transform="translate(5.788 65.44)">
        <path id="Path_22850" data-name="Path 22850" d="M18.458,42.451H5.418a.8.8,0,0,0,0,1.6h13.04a.8.8,0,0,0,0-1.6Z" transform="translate(-4.618 -42.451)" stroke="#000" stroke-width="1"/>
      </g>
      <g id="Group_3887" data-name="Group 3887" transform="translate(7.535 72.138)">
        <path id="Path_22851" data-name="Path 22851" d="M17.323,46.8,6.03,55.285a.8.8,0,0,0,.961,1.279l11.293-8.488a.8.8,0,0,0-.961-1.279Z" transform="translate(-5.71 -46.638)" stroke="#000" stroke-width="1"/>
      </g>
      <g id="Group_3888" data-name="Group 3888" transform="translate(7.535 50.257)">
        <path id="Path_22852" data-name="Path 22852" d="M18.442,42.727a.8.8,0,0,0-.159-1.12L6.991,33.119A.8.8,0,0,0,6.03,34.4l11.293,8.488A.8.8,0,0,0,18.442,42.727Z" transform="translate(-5.71 -32.96)" stroke="#000" stroke-width="1"/>
      </g>
    </g>
  </g>
</svg>
