<svg xmlns="http://www.w3.org/2000/svg" width="120.469" height="101.17" viewBox="0 0 120.469 101.17">
  <g id="noun_create_blog_3152624" data-name="noun_create blog_3152624" transform="translate(-12.562 -87.9)">
    <g id="Group_3894" data-name="Group 3894" transform="translate(12.562 87.9)">
      <path id="Path_22859" data-name="Path 22859" d="M267.037,211.688a2.631,2.631,0,0,1-2.637-2.637V191.914a2.639,2.639,0,0,1,4.061-2.225l13.313,8.569a2.633,2.633,0,0,1,1.212,2.213,2.605,2.605,0,0,1-1.212,2.213l-13.313,8.569A2.532,2.532,0,0,1,267.037,211.688Zm.895-18.127v13.854l10.758-6.933Z" transform="translate(-243.048 -177.341)" fill="#212121"/>
      <path id="Path_22860" data-name="Path 22860" d="M126.258,134.041H86.025A3.024,3.024,0,0,1,83,131.016V90.925A3.024,3.024,0,0,1,86.025,87.9h55.217a3.024,3.024,0,0,1,3.025,3.025v30.6H126.258ZM86.543,130.51h36.183v-9.052a3.471,3.471,0,0,1,3.472-3.472h14.549V91.431h-54.2Z" transform="translate(-83 -87.9)" fill="#212121"/>
      <path id="Path_22861" data-name="Path 22861" d="M440.4,389.641H423.972a3.471,3.471,0,0,1-3.472-3.472v-39.2a3.471,3.471,0,0,1,3.472-3.472h54.31a3.471,3.471,0,0,1,3.472,3.472v28.156l-14.1-17.633c-3.472,4.084-12.795,15.02-19.916,23.424-2.884,3.4-5.238,6.191-6.8,8.087Zm-16.373-3.531h14.725c1.554-1.86,3.72-4.426,6.3-7.463,8.875-10.488,21.187-24.919,21.305-25.06l1.389-1.624,10.488,13.113V347.031h-54.2Z" transform="translate(-380.774 -313.414)" fill="#212121"/>
      <path id="Path_22862" data-name="Path 22862" d="M592.981,453.078H550.5l2.413-2.9c1.577-1.9,3.943-4.7,6.827-8.1,8.875-10.488,21.187-24.919,21.305-25.06l1.389-1.624,14.019,17.527v16.679A3.471,3.471,0,0,1,592.981,453.078Zm-34.924-3.531h34.865v-15.4l-10.57-13.219c-3.472,4.084-12.795,15.02-19.916,23.424C560.788,446.31,559.316,448.052,558.057,449.547Z" transform="translate(-495.472 -376.851)" fill="#212121"/>
      <path id="Path_22863" data-name="Path 22863" d="M593.627,411.353a6.027,6.027,0,1,1,6.027-6.027A6.038,6.038,0,0,1,593.627,411.353Zm0-8.522a2.5,2.5,0,1,0,2.5,2.5A2.5,2.5,0,0,0,593.627,402.831Z" transform="translate(-528.205 -362.646)" fill="#212121"/>
      <path id="Path_22864" data-name="Path 22864" d="M440.4,551.277H423.972A3.471,3.471,0,0,1,420.5,547.8v-1.836l.412-.494c5.45-6.45,14.478-17.044,14.572-17.15l1.389-1.624,11.806,14.749-.942,1.106c-2.872,3.4-5.226,6.191-6.8,8.087Zm-16.373-3.531h14.725c1.365-1.636,3.19-3.8,5.356-6.356l-7.321-9.158c-2.66,3.131-8.6,10.1-12.759,15.019Z" transform="translate(-380.774 -475.05)" fill="#212121"/>
      <rect id="Rectangle_2337" data-name="Rectangle 2337" width="30.733" height="3.531" transform="translate(70.142 6.203)" fill="#212121"/>
      <rect id="Rectangle_2338" data-name="Rectangle 2338" width="15.02" height="3.531" transform="translate(70.142 17.397)" fill="#212121"/>
      <path id="Path_22865" data-name="Path 22865" d="M65.119,15.408H1.815C.81,15.408,0,14.266,0,12.877V2.531C0,1.13.819,0,1.815,0h63.3l5.529,7.71ZM2.532,11.877H64.073l3-4.179-3-4.179H2.532Z" transform="translate(120.464 30.086) rotate(90)" fill="#212121"/>
      <rect id="Rectangle_2341" data-name="Rectangle 2341" width="3.531" height="11.888" transform="translate(120.469 37.787) rotate(90)" fill="#212121"/>
      <rect id="Rectangle_2342" data-name="Rectangle 2342" width="46.223" height="3.531" transform="translate(114.525 44.076) rotate(90)" fill="#212121"/>
    </g>
    <g id="noun_Microphone_3187958" transform="translate(12.562 137.82)">
      <g id="Group_3896" data-name="Group 3896" transform="translate(0 0)">
        <path id="Path_22871" data-name="Path 22871" d="M38.458,11a1.708,1.708,0,0,0-1.708,1.708V21.25a13.667,13.667,0,1,1-27.333,0V12.708a1.708,1.708,0,1,0-3.417,0V21.25a17.083,17.083,0,0,0,15.375,17v3.5H19.667a1.708,1.708,0,0,0,0,3.417H26.5a1.708,1.708,0,0,0,0-3.417H24.792v-3.5a17.083,17.083,0,0,0,15.375-17V12.708A1.708,1.708,0,0,0,38.458,11Z" transform="translate(-6 6.083)" fill="#212121"/>
        <path id="Path_22872" data-name="Path 22872" d="M20.958,1A11.958,11.958,0,0,0,9,12.958V26.625a11.958,11.958,0,1,0,23.917,0V12.958A11.958,11.958,0,0,0,20.958,1ZM29.5,26.625a8.542,8.542,0,0,1-16.913,1.708h4.954a1.708,1.708,0,1,0,0-3.417H12.417V21.5h5.125a1.708,1.708,0,1,0,0-3.417H12.417V14.667h5.125a1.708,1.708,0,1,0,0-3.417H12.588A8.542,8.542,0,0,1,29.5,12.958Z" transform="translate(-3.875 -1)" fill="#212121"/>
      </g>
    </g>
  </g>
</svg>
