<svg xmlns="http://www.w3.org/2000/svg" width="77.069" height="100.763" viewBox="0 0 77.069 100.763">
  <g id="Group_3915" data-name="Group 3915" transform="translate(-105.24 -7.447)">
    <path id="Path_22925" data-name="Path 22925" d="M155,54.632c0-3.248,4.939-3.248,4.939,0V98.847a9.384,9.384,0,0,1-9.363,9.363H114.6a9.384,9.384,0,0,1-9.363-9.363V31.818a9.365,9.365,0,0,1,9.677-9.472l24.057.045c3.236,0,3.236,4.921,0,4.921l-24.315-.046a4.431,4.431,0,0,0-4.479,4.722V98.847a4.443,4.443,0,0,0,4.423,4.424h35.974A4.444,4.444,0,0,0,155,98.847V54.632ZM130.781,48.4l12.391,9.292a7.3,7.3,0,0,1,0,11.711l-12.391,9.293a7.329,7.329,0,0,1-11.721-5.855V54.251A7.329,7.329,0,0,1,130.781,48.4Zm9.438,13.229-12.391-9.293A2.4,2.4,0,0,0,124,54.251V72.837a2.4,2.4,0,0,0,3.828,1.919l12.391-9.293A2.389,2.389,0,0,0,140.219,61.625Zm6.21-49.256c-3.236-.1-3.083-5.023.154-4.921a37.053,37.053,0,0,1,35.7,38.269c-.1,3.235-5.021,3.082-4.921-.155A32.136,32.136,0,0,0,146.429,12.37Zm-.757,21.668c-3.235-.1-3.082-5.021.155-4.92a15.34,15.34,0,0,1,14.79,15.843c-.1,3.236-5.021,3.082-4.921-.155A10.425,10.425,0,0,0,145.672,34.037Zm.787-16.394A26.824,26.824,0,0,1,172.106,45.2a2.464,2.464,0,1,1-4.926.011,21.932,21.932,0,0,0-20.929-22.645c-3.533.081-3.238-5.348.207-4.918ZM127.624,34.735c-3.248,0-3.248-4.94,0-4.94h9.933c3.248,0,3.248,4.94,0,4.94ZM116.385,95.1c-3.249,0-3.249-4.94,0-4.94h4.7c3.249,0,3.249,4.94,0,4.94Zm13.918,0c-3.249,0-3.249-4.94,0-4.94H148.8c3.248,0,3.248,4.94,0,4.94Z" transform="translate(0 0)"/>
  </g>
</svg>
