<svg id="Verified_Badge_Icon" data-name="Verified Badge Icon" xmlns="http://www.w3.org/2000/svg" width="15.253" height="15.251" viewBox="0 0 15.253 15.251">
  <g id="Group_115" data-name="Group 115" transform="translate(-0.033 0)">
    <path id="Path_209" data-name="Path 209" d="M20,13.63A2.541,2.541,0,0,1,20,11.7l.085-.2a2.548,2.548,0,0,0-1.372-3.32l-.186-.085a2.48,2.48,0,0,1-1.372-1.372l-.068-.169a2.582,2.582,0,0,0-3.337-1.372l-.169.068a2.585,2.585,0,0,1-1.948,0l-.152-.068a2.558,2.558,0,0,0-3.3,1.389L8.11,6.7A2.48,2.48,0,0,1,6.738,8.073l-.152.068a2.555,2.555,0,0,0-1.355,3.32l.068.152a2.541,2.541,0,0,1,0,1.931l-.068.186a2.51,2.51,0,0,0,1.372,3.3l.169.068a2.48,2.48,0,0,1,1.372,1.372l.085.186a2.531,2.531,0,0,0,3.3,1.389l.186-.085a2.585,2.585,0,0,1,1.948,0l.152.068a2.548,2.548,0,0,0,3.32-1.372l.068-.136a2.48,2.48,0,0,1,1.372-1.372l.136-.051a2.528,2.528,0,0,0,1.372-3.32Zm-8.064,2.287h0l-3.3-2.778,1.016-1.2,2.1,1.779,3.71-4.4,1.2,1.016-4.727,5.59Z" transform="translate(-5 -4.988)" fill="#fff"/>
  </g>
</svg>
